<svg width="516" height="42" viewBox="0 0 516 42" fill="none" xmlns="http://www.w3.org/2000/svg">
<path d="M15.072 17.52L14.176 24.32H16.544V26.88H13.824L13.168 32H10.16L10.832 26.88H6.784L6.112 32H3.104L3.776 26.88H1.488V24.32H4.112L5.04 17.52H2.672V14.944H5.376L6.032 9.92H9.056L8.352 14.944H12.416L13.088 9.92H16.096L15.408 14.944H17.728V17.52H15.072ZM7.12 24.32H11.168L12.08 17.52H8.016L7.12 24.32Z" fill="#C778DD"/>
<path d="M35.76 27.856C35.76 28.5173 35.8613 29.0027 36.064 29.312C36.2667 29.6107 36.592 29.8347 37.04 29.984L36.24 32.416C35.408 32.32 34.6933 32.0907 34.096 31.728C33.4987 31.3653 33.0453 30.816 32.736 30.08C32.1173 30.8587 31.3333 31.4453 30.384 31.84C29.4347 32.2347 28.4213 32.432 27.344 32.432C25.6373 32.432 24.2827 31.952 23.28 30.992C22.288 30.0213 21.792 28.752 21.792 27.184C21.792 25.4027 22.4853 24.032 23.872 23.072C25.2587 22.112 27.2427 21.632 29.824 21.632H32.24V20.528C32.24 19.44 31.9093 18.656 31.248 18.176C30.5973 17.696 29.6747 17.456 28.48 17.456C27.9253 17.456 27.2533 17.5307 26.464 17.68C25.6747 17.8187 24.848 18.0373 23.984 18.336L23.104 15.808C24.16 15.4133 25.1947 15.1253 26.208 14.944C27.2213 14.752 28.16 14.656 29.024 14.656C31.2853 14.656 32.9707 15.1573 34.08 16.16C35.2 17.1627 35.76 18.5493 35.76 20.32V27.856ZM28.432 29.792C29.1573 29.792 29.8667 29.6 30.56 29.216C31.2533 28.832 31.8133 28.2933 32.24 27.6V23.872H30.256C28.5707 23.872 27.3653 24.1547 26.64 24.72C25.9147 25.2747 25.552 26.0427 25.552 27.024C25.552 27.92 25.792 28.608 26.272 29.088C26.7627 29.5573 27.4827 29.792 28.432 29.792ZM45.6195 17.12C46.2062 16.352 46.8888 15.7493 47.6675 15.312C48.4568 14.8747 49.3208 14.656 50.2595 14.656C51.7422 14.656 52.9422 15.024 53.8595 15.76C54.7875 16.4853 55.4648 17.5147 55.8915 18.848C56.3288 20.1707 56.5475 21.728 56.5475 23.52C56.5475 25.2373 56.2915 26.768 55.7795 28.112C55.2675 29.456 54.5102 30.512 53.5075 31.28C52.5155 32.048 51.2888 32.432 49.8275 32.432C47.9395 32.432 46.4568 31.7333 45.3795 30.336L45.1875 32H42.0355V8.32L45.6195 7.92V17.12ZM48.9315 29.696C50.1475 29.696 51.0862 29.2 51.7475 28.208C52.4195 27.216 52.7555 25.6587 52.7555 23.536C52.7555 22.096 52.6222 20.928 52.3555 20.032C52.0888 19.1253 51.6942 18.464 51.1715 18.048C50.6595 17.632 50.0302 17.424 49.2835 17.424C48.4835 17.424 47.7795 17.664 47.1715 18.144C46.5635 18.624 46.0462 19.1893 45.6195 19.84V27.744C46.0142 28.352 46.4888 28.832 47.0435 29.184C47.6088 29.5253 48.2382 29.696 48.9315 29.696ZM67.991 14.656C69.6443 14.656 71.0363 15.024 72.167 15.76C73.2977 16.496 74.151 17.5253 74.727 18.848C75.3137 20.1707 75.607 21.728 75.607 23.52C75.607 25.3013 75.3083 26.864 74.711 28.208C74.1243 29.5413 73.2603 30.5813 72.119 31.328C70.9883 32.064 69.607 32.432 67.975 32.432C66.343 32.432 64.9563 32.0747 63.815 31.36C62.6843 30.6347 61.8203 29.6053 61.223 28.272C60.6363 26.9387 60.343 25.3653 60.343 23.552C60.343 21.792 60.6363 20.2453 61.223 18.912C61.8203 17.5787 62.6897 16.5387 63.831 15.792C64.9723 15.0347 66.359 14.656 67.991 14.656ZM67.991 17.44C66.7003 17.44 65.7297 17.936 65.079 18.928C64.4283 19.9093 64.103 21.4507 64.103 23.552C64.103 25.6427 64.423 27.184 65.063 28.176C65.7137 29.168 66.6843 29.664 67.975 29.664C69.2657 29.664 70.231 29.168 70.871 28.176C71.5217 27.184 71.847 25.632 71.847 23.52C71.847 21.44 71.527 19.9093 70.887 18.928C70.247 17.936 69.2817 17.44 67.991 17.44ZM83.9945 15.104V26.912C83.9945 27.9147 84.1918 28.6293 84.5865 29.056C84.9918 29.4827 85.5998 29.696 86.4105 29.696C87.1785 29.696 87.9198 29.4667 88.6345 29.008C89.3492 28.5493 89.9145 27.9893 90.3305 27.328V15.104H93.9145V32H90.8265L90.6025 29.84C89.9732 30.6827 89.1785 31.328 88.2185 31.776C87.2585 32.2133 86.2772 32.432 85.2745 32.432C83.6425 32.432 82.4212 31.984 81.6105 31.088C80.8105 30.1813 80.4105 28.9387 80.4105 27.36V15.104H83.9945ZM113.71 31.104C113.091 31.4987 112.35 31.8187 111.486 32.064C110.622 32.3093 109.721 32.432 108.782 32.432C106.819 32.432 105.326 31.9253 104.302 30.912C103.289 29.888 102.782 28.544 102.782 26.88V17.712H99.022V15.104H102.782V11.328L106.366 10.896V15.104H112.062L111.662 17.712H106.366V26.848C106.366 27.7547 106.59 28.432 107.038 28.88C107.497 29.3173 108.243 29.536 109.278 29.536C109.897 29.536 110.467 29.4613 110.99 29.312C111.513 29.1627 111.987 28.9707 112.414 28.736L113.71 31.104ZM118.93 24.736V21.792H132.146V24.736H118.93ZM149.621 14.656C150.261 14.656 150.837 14.7947 151.349 15.072C151.861 15.3493 152.261 15.8347 152.549 16.528C152.848 17.2213 152.997 18.192 152.997 19.44V32H149.813V19.936C149.813 19.0507 149.749 18.416 149.621 18.032C149.504 17.648 149.189 17.456 148.677 17.456C148.272 17.456 147.861 17.584 147.445 17.84C147.029 18.0853 146.608 18.512 146.181 19.12V32H143.285V19.936C143.285 19.0507 143.221 18.416 143.093 18.032C142.976 17.648 142.661 17.456 142.149 17.456C141.733 17.456 141.317 17.584 140.901 17.84C140.496 18.0853 140.08 18.512 139.653 19.12V32H136.453V15.104H139.157L139.397 16.928C139.877 16.256 140.4 15.712 140.965 15.296C141.53 14.8693 142.213 14.656 143.013 14.656C143.653 14.656 144.234 14.816 144.757 15.136C145.28 15.456 145.664 16.016 145.909 16.816C146.378 16.176 146.912 15.6587 147.509 15.264C148.106 14.8587 148.81 14.656 149.621 14.656ZM160.137 24.704C160.211 25.856 160.457 26.8 160.873 27.536C161.289 28.2613 161.833 28.7947 162.505 29.136C163.187 29.4773 163.934 29.648 164.745 29.648C165.577 29.648 166.345 29.52 167.049 29.264C167.753 29.008 168.462 28.6453 169.177 28.176L170.729 30.32C169.939 30.96 169.017 31.472 167.961 31.856C166.905 32.24 165.774 32.432 164.569 32.432C162.819 32.432 161.337 32.0587 160.121 31.312C158.915 30.5653 157.998 29.5253 157.369 28.192C156.739 26.8587 156.424 25.3173 156.424 23.568C156.424 21.872 156.734 20.3573 157.353 19.024C157.971 17.68 158.857 16.6187 160.009 15.84C161.161 15.0507 162.537 14.656 164.137 14.656C165.641 14.656 166.931 14.9973 168.009 15.68C169.097 16.3627 169.934 17.3333 170.521 18.592C171.118 19.84 171.417 21.344 171.417 23.104C171.417 23.392 171.406 23.68 171.385 23.968C171.374 24.2453 171.358 24.4907 171.337 24.704H160.137ZM164.169 17.312C163.049 17.312 162.121 17.712 161.385 18.512C160.659 19.312 160.238 20.56 160.121 22.256H167.945C167.913 20.6667 167.571 19.4453 166.921 18.592C166.281 17.7387 165.363 17.312 164.169 17.312Z" fill="white"/>
<path fill-rule="evenodd" clip-rule="evenodd" d="M516 21.5H190V20.5H516V21.5Z" fill="#C778DD"/>
</svg>
