<svg width="148" height="37" viewBox="0 0 148 37" fill="none" xmlns="http://www.w3.org/2000/svg">
<rect x="0.5" y="0.5" width="147" height="36" stroke="#C778DD"/>
<path d="M24.744 16.152C24.744 16.696 24.632 17.1707 24.408 17.576C24.1893 17.976 23.888 18.3093 23.504 18.576C23.1253 18.8427 22.7013 19.048 22.232 19.192L25.36 24H23.2L20.424 19.456H19.216V24H17.36V12.96H20.44C21.8587 12.96 22.9307 13.2267 23.656 13.76C24.3813 14.288 24.744 15.0853 24.744 16.152ZM22.8 16.152C22.8 15.512 22.6133 15.0507 22.24 14.768C21.872 14.48 21.3067 14.336 20.544 14.336H19.216V18.096H20.584C21.2933 18.096 21.84 17.9467 22.224 17.648C22.608 17.344 22.8 16.8453 22.8 16.152ZM28.5058 20.352C28.5431 20.928 28.6658 21.4 28.8738 21.768C29.0818 22.1307 29.3538 22.3973 29.6898 22.568C30.0311 22.7387 30.4044 22.824 30.8098 22.824C31.2258 22.824 31.6098 22.76 31.9618 22.632C32.3138 22.504 32.6684 22.3227 33.0258 22.088L33.8018 23.16C33.4071 23.48 32.9458 23.736 32.4178 23.928C31.8898 24.12 31.3244 24.216 30.7218 24.216C29.8471 24.216 29.1058 24.0293 28.4978 23.656C27.8951 23.2827 27.4364 22.7627 27.1218 22.096C26.8071 21.4293 26.6497 20.6587 26.6497 19.784C26.6497 18.936 26.8044 18.1787 27.1138 17.512C27.4231 16.84 27.8658 16.3093 28.4418 15.92C29.0178 15.5253 29.7058 15.328 30.5058 15.328C31.2578 15.328 31.9031 15.4987 32.4418 15.84C32.9858 16.1813 33.4044 16.6667 33.6978 17.296C33.9964 17.92 34.1458 18.672 34.1458 19.552C34.1458 19.696 34.1404 19.84 34.1298 19.984C34.1244 20.1227 34.1164 20.2453 34.1058 20.352H28.5058ZM30.5218 16.656C29.9618 16.656 29.4978 16.856 29.1298 17.256C28.7671 17.656 28.5564 18.28 28.4978 19.128H32.4098C32.3938 18.3333 32.2231 17.7227 31.8978 17.296C31.5778 16.8693 31.1191 16.656 30.5218 16.656ZM43.0675 21.928C43.0675 22.2587 43.1182 22.5013 43.2195 22.656C43.3208 22.8053 43.4835 22.9173 43.7075 22.992L43.3075 24.208C42.8915 24.16 42.5342 24.0453 42.2355 23.864C41.9368 23.6827 41.7102 23.408 41.5555 23.04C41.2462 23.4293 40.8542 23.7227 40.3795 23.92C39.9048 24.1173 39.3982 24.216 38.8595 24.216C38.0062 24.216 37.3288 23.976 36.8275 23.496C36.3315 23.0107 36.0835 22.376 36.0835 21.592C36.0835 20.7013 36.4302 20.016 37.1235 19.536C37.8168 19.056 38.8088 18.816 40.0995 18.816H41.3075V18.264C41.3075 17.72 41.1422 17.328 40.8115 17.088C40.4862 16.848 40.0248 16.728 39.4275 16.728C39.1502 16.728 38.8142 16.7653 38.4195 16.84C38.0248 16.9093 37.6115 17.0187 37.1795 17.168L36.7395 15.904C37.2675 15.7067 37.7848 15.5627 38.2915 15.472C38.7982 15.376 39.2675 15.328 39.6995 15.328C40.8302 15.328 41.6728 15.5787 42.2275 16.08C42.7875 16.5813 43.0675 17.2747 43.0675 18.16V21.928ZM39.4035 22.896C39.7662 22.896 40.1208 22.8 40.4675 22.608C40.8142 22.416 41.0942 22.1467 41.3075 21.8V19.936H40.3155C39.4728 19.936 38.8702 20.0773 38.5075 20.36C38.1448 20.6373 37.9635 21.0213 37.9635 21.512C37.9635 21.96 38.0835 22.304 38.3235 22.544C38.5688 22.7787 38.9288 22.896 39.4035 22.896ZM51.1653 11.96L52.9573 12.16V24H51.3813L51.2533 22.96C50.9653 23.36 50.6213 23.6693 50.2213 23.888C49.8213 24.1067 49.3733 24.216 48.8773 24.216C48.1519 24.216 47.5546 24.032 47.0853 23.664C46.6159 23.2907 46.2666 22.7707 46.0373 22.104C45.8133 21.432 45.7013 20.656 45.7013 19.776C45.7013 18.9173 45.8346 18.1547 46.1013 17.488C46.3679 16.816 46.7493 16.288 47.2453 15.904C47.7413 15.52 48.3386 15.328 49.0373 15.328C49.4799 15.328 49.8773 15.408 50.2293 15.568C50.5813 15.7227 50.8933 15.9493 51.1653 16.248V11.96ZM49.5093 16.704C48.9066 16.704 48.4373 16.9547 48.1013 17.456C47.7653 17.952 47.5973 18.7253 47.5973 19.776C47.5973 20.496 47.6666 21.0827 47.8053 21.536C47.9439 21.984 48.1439 22.3147 48.4053 22.528C48.6666 22.736 48.9813 22.84 49.3493 22.84C49.7546 22.84 50.1066 22.7227 50.4053 22.488C50.7039 22.2533 50.9573 21.9707 51.1653 21.64V17.64C50.9573 17.3413 50.7146 17.112 50.4373 16.952C50.1599 16.7867 49.8506 16.704 49.5093 16.704ZM71.2168 15.328C71.5368 15.328 71.8248 15.3973 72.0808 15.536C72.3368 15.6747 72.5368 15.9173 72.6808 16.264C72.8301 16.6107 72.9048 17.096 72.9048 17.72V24H71.3128V17.968C71.3128 17.5253 71.2808 17.208 71.2168 17.016C71.1581 16.824 71.0008 16.728 70.7448 16.728C70.5421 16.728 70.3368 16.792 70.1288 16.92C69.9208 17.0427 69.7101 17.256 69.4968 17.56V24H68.0488V17.968C68.0488 17.5253 68.0168 17.208 67.9528 17.016C67.8941 16.824 67.7368 16.728 67.4808 16.728C67.2728 16.728 67.0648 16.792 66.8568 16.92C66.6541 17.0427 66.4461 17.256 66.2328 17.56V24H64.6328V15.552H65.9848L66.1048 16.464C66.3448 16.128 66.6061 15.856 66.8888 15.648C67.1714 15.4347 67.5128 15.328 67.9128 15.328C68.2328 15.328 68.5234 15.408 68.7848 15.568C69.0461 15.728 69.2381 16.008 69.3608 16.408C69.5954 16.088 69.8621 15.8293 70.1608 15.632C70.4594 15.4293 70.8114 15.328 71.2168 15.328ZM78.3705 15.328C79.1972 15.328 79.8932 15.512 80.4585 15.88C81.0238 16.248 81.4505 16.7627 81.7385 17.424C82.0318 18.0853 82.1785 18.864 82.1785 19.76C82.1785 20.6507 82.0292 21.432 81.7305 22.104C81.4372 22.7707 81.0052 23.2907 80.4345 23.664C79.8692 24.032 79.1785 24.216 78.3625 24.216C77.5465 24.216 76.8532 24.0373 76.2825 23.68C75.7172 23.3173 75.2852 22.8027 74.9865 22.136C74.6932 21.4693 74.5465 20.6827 74.5465 19.776C74.5465 18.896 74.6932 18.1227 74.9865 17.456C75.2852 16.7893 75.7198 16.2693 76.2905 15.896C76.8612 15.5173 77.5545 15.328 78.3705 15.328ZM78.3705 16.72C77.7252 16.72 77.2398 16.968 76.9145 17.464C76.5892 17.9547 76.4265 18.7253 76.4265 19.776C76.4265 20.8213 76.5865 21.592 76.9065 22.088C77.2318 22.584 77.7172 22.832 78.3625 22.832C79.0078 22.832 79.4905 22.584 79.8105 22.088C80.1358 21.592 80.2985 20.816 80.2985 19.76C80.2985 18.72 80.1385 17.9547 79.8185 17.464C79.4985 16.968 79.0158 16.72 78.3705 16.72ZM84.6603 24V22.72H85.9003V16.824H84.6603V15.552H87.2682L87.5963 17.512C87.9109 16.8027 88.3003 16.264 88.7643 15.896C89.2336 15.5227 89.8363 15.336 90.5723 15.336C90.8229 15.336 91.0469 15.3573 91.2443 15.4C91.4469 15.4373 91.6469 15.488 91.8443 15.552L91.3083 17.088C91.1376 17.04 90.9776 17.0053 90.8283 16.984C90.6789 16.9573 90.5136 16.944 90.3323 16.944C89.7189 16.944 89.1883 17.1733 88.7403 17.632C88.2976 18.0907 87.9483 18.7413 87.6923 19.584V22.72H89.3963V24H84.6603ZM90.2603 18.664V16.584L90.4843 15.552H91.8443L91.5403 18.664H90.2603ZM95.662 20.352C95.6993 20.928 95.822 21.4 96.03 21.768C96.238 22.1307 96.51 22.3973 96.846 22.568C97.1873 22.7387 97.5607 22.824 97.966 22.824C98.382 22.824 98.766 22.76 99.118 22.632C99.47 22.504 99.8247 22.3227 100.182 22.088L100.958 23.16C100.563 23.48 100.102 23.736 99.574 23.928C99.046 24.12 98.4807 24.216 97.878 24.216C97.0033 24.216 96.262 24.0293 95.654 23.656C95.0513 23.2827 94.5927 22.7627 94.278 22.096C93.9633 21.4293 93.806 20.6587 93.806 19.784C93.806 18.936 93.9607 18.1787 94.27 17.512C94.5793 16.84 95.022 16.3093 95.598 15.92C96.174 15.5253 96.862 15.328 97.662 15.328C98.414 15.328 99.0593 15.4987 99.598 15.84C100.142 16.1813 100.561 16.6667 100.854 17.296C101.153 17.92 101.302 18.672 101.302 19.552C101.302 19.696 101.297 19.84 101.286 19.984C101.281 20.1227 101.273 20.2453 101.262 20.352H95.662ZM97.678 16.656C97.118 16.656 96.654 16.856 96.286 17.256C95.9233 17.656 95.7127 18.28 95.654 19.128H99.566C99.55 18.3333 99.3793 17.7227 99.054 17.296C98.734 16.8693 98.2753 16.656 97.678 16.656ZM113.834 19.752V18.232H121.698V19.752H113.834ZM127.931 19.752H121.371V18.232H127.931V19.752ZM124.779 13.928L129.315 18.992L124.779 24.056L123.531 22.992L125.379 20.968C125.641 20.6907 125.87 20.4587 126.067 20.272C126.265 20.08 126.489 19.9067 126.739 19.752V18.232C126.489 18.0773 126.265 17.9067 126.067 17.72C125.87 17.528 125.641 17.2933 125.379 17.016L123.531 14.992L124.779 13.928Z" fill="white"/>
</svg>
