<svg width="516" height="42" viewBox="0 0 516 42" fill="none" xmlns="http://www.w3.org/2000/svg">
<path d="M15.072 17.52L14.176 24.32H16.544V26.88H13.824L13.168 32H10.16L10.832 26.88H6.784L6.112 32H3.104L3.776 26.88H1.488V24.32H4.112L5.04 17.52H2.672V14.944H5.376L6.032 9.92H9.056L8.352 14.944H12.416L13.088 9.92H16.096L15.408 14.944H17.728V17.52H15.072ZM7.12 24.32H11.168L12.08 17.52H8.016L7.12 24.32Z" fill="#C778DD"/>
<path d="M23.008 32V29.44H25.488V17.648H23.008V15.104H28.224L28.88 19.024C29.5093 17.6053 30.288 16.528 31.216 15.792C32.1547 15.0453 33.36 14.672 34.832 14.672C35.3333 14.672 35.7813 14.7147 36.176 14.8C36.5813 14.8747 36.9813 14.976 37.376 15.104L36.304 18.176C35.9627 18.08 35.6427 18.0107 35.344 17.968C35.0453 17.9147 34.7147 17.888 34.352 17.888C33.1253 17.888 32.064 18.3467 31.168 19.264C30.2827 20.1813 29.584 21.4827 29.072 23.168V29.44H32.48V32H23.008ZM34.208 21.328V17.168L34.656 15.104H37.376L36.768 21.328H34.208ZM45.0115 24.704C45.0862 25.856 45.3315 26.8 45.7475 27.536C46.1635 28.2613 46.7075 28.7947 47.3795 29.136C48.0622 29.4773 48.8088 29.648 49.6195 29.648C50.4515 29.648 51.2195 29.52 51.9235 29.264C52.6275 29.008 53.3368 28.6453 54.0515 28.176L55.6035 30.32C54.8142 30.96 53.8915 31.472 52.8355 31.856C51.7795 32.24 50.6488 32.432 49.4435 32.432C47.6942 32.432 46.2115 32.0587 44.9955 31.312C43.7902 30.5653 42.8728 29.5253 42.2435 28.192C41.6142 26.8587 41.2995 25.3173 41.2995 23.568C41.2995 21.872 41.6088 20.3573 42.2275 19.024C42.8462 17.68 43.7315 16.6187 44.8835 15.84C46.0355 15.0507 47.4115 14.656 49.0115 14.656C50.5155 14.656 51.8062 14.9973 52.8835 15.68C53.9715 16.3627 54.8088 17.3333 55.3955 18.592C55.9928 19.84 56.2915 21.344 56.2915 23.104C56.2915 23.392 56.2808 23.68 56.2595 23.968C56.2488 24.2453 56.2328 24.4907 56.2115 24.704H45.0115ZM49.0435 17.312C47.9235 17.312 46.9955 17.712 46.2595 18.512C45.5342 19.312 45.1128 20.56 44.9955 22.256H52.8195C52.7875 20.6667 52.4462 19.4453 51.7955 18.592C51.1555 17.7387 50.2382 17.312 49.0435 17.312ZM67.367 29.68C68.487 29.68 69.3777 29.4827 70.039 29.088C70.7003 28.6827 71.031 28.128 71.031 27.424C71.031 26.9653 70.935 26.576 70.743 26.256C70.551 25.9253 70.167 25.6267 69.591 25.36C69.015 25.0827 68.1403 24.7947 66.967 24.496C65.8577 24.208 64.8817 23.8667 64.039 23.472C63.207 23.0773 62.5617 22.5653 62.103 21.936C61.6443 21.3067 61.415 20.496 61.415 19.504C61.415 18.5333 61.687 17.6853 62.231 16.96C62.775 16.2347 63.5537 15.6693 64.567 15.264C65.591 14.8587 66.791 14.656 68.167 14.656C69.5857 14.656 70.823 14.8427 71.879 15.216C72.935 15.5893 73.8363 16.0533 74.583 16.608L73.079 18.864C72.4177 18.4267 71.6923 18.0693 70.903 17.792C70.1243 17.5147 69.2443 17.376 68.263 17.376C67.1217 17.376 66.3003 17.5467 65.799 17.888C65.3083 18.2293 65.063 18.6827 65.063 19.248C65.063 19.664 65.1857 20.016 65.431 20.304C65.687 20.5813 66.1243 20.8427 66.743 21.088C67.3617 21.3227 68.2363 21.6 69.367 21.92C70.4657 22.2187 71.4203 22.5707 72.231 22.976C73.0523 23.3813 73.687 23.92 74.135 24.592C74.5937 25.2533 74.823 26.1173 74.823 27.184C74.823 28.4 74.471 29.3973 73.767 30.176C73.0737 30.944 72.1563 31.5147 71.015 31.888C69.8843 32.2507 68.6683 32.432 67.367 32.432C65.799 32.432 64.4443 32.208 63.303 31.76C62.1617 31.3013 61.2017 30.7307 60.423 30.048L62.327 27.872C62.9883 28.4053 63.7457 28.8427 64.599 29.184C65.4523 29.5147 66.375 29.68 67.367 29.68ZM83.9945 15.104V26.912C83.9945 27.9147 84.1918 28.6293 84.5865 29.056C84.9918 29.4827 85.5998 29.696 86.4105 29.696C87.1785 29.696 87.9198 29.4667 88.6345 29.008C89.3492 28.5493 89.9145 27.9893 90.3305 27.328V15.104H93.9145V32H90.8265L90.6025 29.84C89.9732 30.6827 89.1785 31.328 88.2185 31.776C87.2585 32.2133 86.2772 32.432 85.2745 32.432C83.6425 32.432 82.4212 31.984 81.6105 31.088C80.8105 30.1813 80.4105 28.9387 80.4105 27.36V15.104H83.9945ZM111.246 14.656C111.886 14.656 112.462 14.7947 112.974 15.072C113.486 15.3493 113.886 15.8347 114.174 16.528C114.473 17.2213 114.622 18.192 114.622 19.44V32H111.438V19.936C111.438 19.0507 111.374 18.416 111.246 18.032C111.129 17.648 110.814 17.456 110.302 17.456C109.897 17.456 109.486 17.584 109.07 17.84C108.654 18.0853 108.233 18.512 107.806 19.12V32H104.91V19.936C104.91 19.0507 104.846 18.416 104.718 18.032C104.601 17.648 104.286 17.456 103.774 17.456C103.358 17.456 102.942 17.584 102.526 17.84C102.121 18.0853 101.705 18.512 101.278 19.12V32H98.078V15.104H100.782L101.022 16.928C101.502 16.256 102.025 15.712 102.59 15.296C103.155 14.8693 103.838 14.656 104.638 14.656C105.278 14.656 105.859 14.816 106.382 15.136C106.905 15.456 107.289 16.016 107.534 16.816C108.003 16.176 108.537 15.6587 109.134 15.264C109.731 14.8587 110.435 14.656 111.246 14.656ZM121.762 24.704C121.836 25.856 122.082 26.8 122.498 27.536C122.914 28.2613 123.458 28.7947 124.13 29.136C124.812 29.4773 125.559 29.648 126.37 29.648C127.202 29.648 127.97 29.52 128.674 29.264C129.378 29.008 130.087 28.6453 130.802 28.176L132.354 30.32C131.564 30.96 130.642 31.472 129.586 31.856C128.53 32.24 127.399 32.432 126.194 32.432C124.444 32.432 122.962 32.0587 121.746 31.312C120.54 30.5653 119.623 29.5253 118.994 28.192C118.364 26.8587 118.049 25.3173 118.049 23.568C118.049 21.872 118.359 20.3573 118.978 19.024C119.596 17.68 120.482 16.6187 121.634 15.84C122.786 15.0507 124.162 14.656 125.762 14.656C127.266 14.656 128.556 14.9973 129.634 15.68C130.722 16.3627 131.559 17.3333 132.146 18.592C132.743 19.84 133.042 21.344 133.042 23.104C133.042 23.392 133.031 23.68 133.01 23.968C132.999 24.2453 132.983 24.4907 132.962 24.704H121.762ZM125.794 17.312C124.674 17.312 123.746 17.712 123.01 18.512C122.284 19.312 121.863 20.56 121.746 22.256H129.57C129.538 20.6667 129.196 19.4453 128.546 18.592C127.906 17.7387 126.988 17.312 125.794 17.312Z" fill="white"/>
<path fill-rule="evenodd" clip-rule="evenodd" d="M516 21.5H152V20.5H516V21.5Z" fill="#C778DD"/>
</svg>
