<svg width="148" height="38" viewBox="0 0 148 38" fill="none" xmlns="http://www.w3.org/2000/svg">
<rect x="0.5" y="1.13831" width="147" height="36" stroke="#C778DD"/>
<path d="M21.728 13.3743C22.4747 13.3743 23.104 13.473 23.616 13.6703C24.1333 13.8623 24.6133 14.1396 25.056 14.5023L24.088 15.6543C23.7573 15.377 23.4027 15.1716 23.024 15.0383C22.6453 14.905 22.2427 14.8383 21.816 14.8383C21.2667 14.8383 20.76 14.977 20.296 15.2543C19.832 15.5316 19.4587 15.9823 19.176 16.6063C18.8987 17.2303 18.76 18.0623 18.76 19.1023C18.76 20.121 18.8933 20.9423 19.16 21.5663C19.4267 22.1903 19.792 22.6436 20.256 22.9263C20.72 23.209 21.24 23.3503 21.816 23.3503C22.408 23.3503 22.8987 23.2543 23.288 23.0623C23.6773 22.865 24.0213 22.6436 24.32 22.3983L25.216 23.5423C24.848 23.8996 24.3813 24.209 23.816 24.4703C23.2507 24.7263 22.5627 24.8543 21.752 24.8543C20.8187 24.8543 19.9787 24.6356 19.232 24.1983C18.4907 23.7556 17.904 23.1076 17.472 22.2543C17.0453 21.401 16.832 20.3503 16.832 19.1023C16.832 17.865 17.0533 16.8223 17.496 15.9743C17.9387 15.121 18.5307 14.4756 19.272 14.0383C20.0133 13.5956 20.832 13.3743 21.728 13.3743ZM30.4018 15.9663C31.2284 15.9663 31.9244 16.1503 32.4898 16.5183C33.0551 16.8863 33.4818 17.401 33.7698 18.0623C34.0631 18.7236 34.2098 19.5023 34.2098 20.3983C34.2098 21.289 34.0604 22.0703 33.7618 22.7423C33.4684 23.409 33.0364 23.929 32.4658 24.3023C31.9004 24.6703 31.2098 24.8543 30.3938 24.8543C29.5778 24.8543 28.8844 24.6756 28.3138 24.3183C27.7484 23.9556 27.3164 23.441 27.0178 22.7743C26.7244 22.1076 26.5778 21.321 26.5778 20.4143C26.5778 19.5343 26.7244 18.761 27.0178 18.0943C27.3164 17.4276 27.7511 16.9076 28.3218 16.5343C28.8924 16.1556 29.5858 15.9663 30.4018 15.9663ZM30.4018 17.3583C29.7564 17.3583 29.2711 17.6063 28.9458 18.1023C28.6204 18.593 28.4578 19.3636 28.4578 20.4143C28.4578 21.4596 28.6178 22.2303 28.9378 22.7263C29.2631 23.2223 29.7484 23.4703 30.3938 23.4703C31.0391 23.4703 31.5218 23.2223 31.8418 22.7263C32.1671 22.2303 32.3298 21.4543 32.3298 20.3983C32.3298 19.3583 32.1698 18.593 31.8498 18.1023C31.5298 17.6063 31.0471 17.3583 30.4018 17.3583ZM36.6115 24.6383V16.1903H38.1555L38.2915 17.2863C38.6435 16.8543 39.0595 16.5263 39.5395 16.3023C40.0195 16.0783 40.5128 15.9663 41.0195 15.9663C41.8088 15.9663 42.3982 16.1876 42.7875 16.6303C43.1822 17.0676 43.3795 17.6836 43.3795 18.4783V24.6383H41.5875V19.3663C41.5875 18.8756 41.5582 18.481 41.4995 18.1823C41.4408 17.8836 41.3235 17.6676 41.1475 17.5343C40.9768 17.401 40.7208 17.3343 40.3795 17.3343C40.1075 17.3343 39.8488 17.393 39.6035 17.5103C39.3582 17.6276 39.1342 17.7823 38.9315 17.9743C38.7288 18.161 38.5528 18.361 38.4035 18.5743V24.6383H36.6115ZM53.2613 24.1903C52.9519 24.3876 52.5813 24.5476 52.1493 24.6703C51.7173 24.793 51.2666 24.8543 50.7973 24.8543C49.8159 24.8543 49.0693 24.601 48.5573 24.0943C48.0506 23.5823 47.7973 22.9103 47.7973 22.0783V17.4943H45.9173V16.1903H47.7973V14.3023L49.5893 14.0863V16.1903H52.4373L52.2373 17.4943H49.5893V22.0623C49.5893 22.5156 49.7013 22.8543 49.9253 23.0783C50.1546 23.297 50.5279 23.4063 51.0453 23.4063C51.3546 23.4063 51.6399 23.369 51.9013 23.2943C52.1626 23.2196 52.3999 23.1236 52.6133 23.0063L53.2613 24.1903ZM62.255 22.5663C62.255 22.897 62.3057 23.1396 62.407 23.2943C62.5083 23.4436 62.671 23.5556 62.895 23.6303L62.495 24.8463C62.079 24.7983 61.7217 24.6836 61.423 24.5023C61.1243 24.321 60.8977 24.0463 60.743 23.6783C60.4337 24.0676 60.0417 24.361 59.567 24.5583C59.0923 24.7556 58.5857 24.8543 58.047 24.8543C57.1937 24.8543 56.5163 24.6143 56.015 24.1343C55.519 23.649 55.271 23.0143 55.271 22.2303C55.271 21.3396 55.6177 20.6543 56.311 20.1743C57.0043 19.6943 57.9963 19.4543 59.287 19.4543H60.495V18.9023C60.495 18.3583 60.3297 17.9663 59.999 17.7263C59.6737 17.4863 59.2123 17.3663 58.615 17.3663C58.3377 17.3663 58.0017 17.4036 57.607 17.4783C57.2123 17.5476 56.799 17.657 56.367 17.8063L55.927 16.5423C56.455 16.345 56.9723 16.201 57.479 16.1103C57.9857 16.0143 58.455 15.9663 58.887 15.9663C60.0177 15.9663 60.8603 16.217 61.415 16.7183C61.975 17.2196 62.255 17.913 62.255 18.7983V22.5663ZM58.591 23.5343C58.9537 23.5343 59.3083 23.4383 59.655 23.2463C60.0017 23.0543 60.2817 22.785 60.495 22.4383V20.5743H59.503C58.6603 20.5743 58.0577 20.7156 57.695 20.9983C57.3323 21.2756 57.151 21.6596 57.151 22.1503C57.151 22.5983 57.271 22.9423 57.511 23.1823C57.7563 23.417 58.1163 23.5343 58.591 23.5343ZM69.4648 23.3823C69.8594 23.3823 70.2274 23.3156 70.5688 23.1823C70.9101 23.0436 71.2354 22.865 71.5448 22.6463L72.3767 23.7983C72.0088 24.113 71.5608 24.369 71.0328 24.5663C70.5101 24.7583 69.9688 24.8543 69.4088 24.8543C68.5448 24.8543 67.8061 24.673 67.1928 24.3103C66.5794 23.9423 66.1101 23.4276 65.7848 22.7663C65.4594 22.105 65.2968 21.3343 65.2968 20.4543C65.2968 19.5956 65.4594 18.8303 65.7848 18.1583C66.1154 17.481 66.5901 16.9476 67.2088 16.5583C67.8274 16.1636 68.5714 15.9663 69.4408 15.9663C70.0168 15.9663 70.5474 16.0516 71.0328 16.2223C71.5181 16.393 71.9634 16.6463 72.3688 16.9823L71.5448 18.1103C71.2141 17.881 70.8754 17.7076 70.5288 17.5903C70.1874 17.4676 69.8354 17.4063 69.4728 17.4063C68.8061 17.4063 68.2594 17.6516 67.8328 18.1423C67.4114 18.633 67.2008 19.4036 67.2008 20.4543C67.2008 21.1583 67.2968 21.7263 67.4888 22.1583C67.6861 22.585 67.9554 22.897 68.2968 23.0943C68.6381 23.2863 69.0274 23.3823 69.4648 23.3823ZM82.0425 24.1903C81.7332 24.3876 81.3625 24.5476 80.9305 24.6703C80.4985 24.793 80.0478 24.8543 79.5785 24.8543C78.5972 24.8543 77.8505 24.601 77.3385 24.0943C76.8318 23.5823 76.5785 22.9103 76.5785 22.0783V17.4943H74.6985V16.1903H76.5785V14.3023L78.3705 14.0863V16.1903H81.2185L81.0185 17.4943H78.3705V22.0623C78.3705 22.5156 78.4825 22.8543 78.7065 23.0783C78.9358 23.297 79.3092 23.4063 79.8265 23.4063C80.1358 23.4063 80.4212 23.369 80.6825 23.2943C80.9438 23.2196 81.1812 23.1236 81.3945 23.0063L82.0425 24.1903ZM99.998 15.9663C100.318 15.9663 100.606 16.0356 100.862 16.1743C101.118 16.313 101.318 16.5556 101.462 16.9023C101.611 17.249 101.686 17.7343 101.686 18.3583V24.6383H100.094V18.6063C100.094 18.1636 100.062 17.8463 99.998 17.6543C99.9393 17.4623 99.782 17.3663 99.526 17.3663C99.3233 17.3663 99.118 17.4303 98.91 17.5583C98.702 17.681 98.4913 17.8943 98.278 18.1983V24.6383H96.83V18.6063C96.83 18.1636 96.798 17.8463 96.734 17.6543C96.6753 17.4623 96.518 17.3663 96.262 17.3663C96.054 17.3663 95.846 17.4303 95.638 17.5583C95.4353 17.681 95.2273 17.8943 95.014 18.1983V24.6383H93.414V16.1903H94.766L94.886 17.1023C95.126 16.7663 95.3873 16.4943 95.67 16.2863C95.9527 16.073 96.294 15.9663 96.694 15.9663C97.014 15.9663 97.3047 16.0463 97.566 16.2063C97.8273 16.3663 98.0193 16.6463 98.142 17.0463C98.3767 16.7263 98.6433 16.4676 98.942 16.2703C99.2407 16.0676 99.5927 15.9663 99.998 15.9663ZM105.256 20.9903C105.293 21.5663 105.416 22.0383 105.624 22.4063C105.832 22.769 106.104 23.0356 106.44 23.2063C106.781 23.377 107.154 23.4623 107.56 23.4623C107.976 23.4623 108.36 23.3983 108.712 23.2703C109.064 23.1423 109.418 22.961 109.776 22.7263L110.552 23.7983C110.157 24.1183 109.696 24.3743 109.168 24.5663C108.64 24.7583 108.074 24.8543 107.472 24.8543C106.597 24.8543 105.856 24.6676 105.248 24.2943C104.645 23.921 104.186 23.401 103.872 22.7343C103.557 22.0676 103.4 21.297 103.4 20.4223C103.4 19.5743 103.554 18.817 103.864 18.1503C104.173 17.4783 104.616 16.9476 105.192 16.5583C105.768 16.1636 106.456 15.9663 107.256 15.9663C108.008 15.9663 108.653 16.137 109.192 16.4783C109.736 16.8196 110.154 17.305 110.448 17.9343C110.746 18.5583 110.896 19.3103 110.896 20.1903C110.896 20.3343 110.89 20.4783 110.88 20.6223C110.874 20.761 110.866 20.8836 110.856 20.9903H105.256ZM107.272 17.2943C106.712 17.2943 106.248 17.4943 105.88 17.8943C105.517 18.2943 105.306 18.9183 105.248 19.7663H109.16C109.144 18.9716 108.973 18.361 108.648 17.9343C108.328 17.5076 107.869 17.2943 107.272 17.2943ZM119.603 13.5983L119.395 20.8383H117.875L117.651 13.5983H119.603ZM118.643 22.4303C118.99 22.4303 119.281 22.5503 119.515 22.7903C119.745 23.025 119.859 23.3076 119.859 23.6383C119.859 23.9743 119.745 24.2623 119.515 24.5023C119.281 24.737 118.99 24.8543 118.643 24.8543C118.307 24.8543 118.022 24.737 117.787 24.5023C117.553 24.2623 117.435 23.9743 117.435 23.6383C117.435 23.3076 117.553 23.025 117.787 22.7903C118.022 22.5503 118.307 22.4303 118.643 22.4303ZM125.363 13.5983L125.155 20.8383H123.635L123.411 13.5983H125.363ZM124.403 22.4303C124.75 22.4303 125.038 22.5503 125.267 22.7903C125.502 23.025 125.619 23.3076 125.619 23.6383C125.619 23.9743 125.502 24.2623 125.267 24.5023C125.038 24.737 124.75 24.8543 124.403 24.8543C124.067 24.8543 123.782 24.737 123.547 24.5023C123.313 24.2623 123.195 23.9743 123.195 23.6383C123.195 23.3076 123.313 23.025 123.547 22.7903C123.782 22.5503 124.067 22.4303 124.403 22.4303Z" fill="white"/>
</svg>
