<svg width="611" height="173" viewBox="0 0 611 173" fill="none" xmlns="http://www.w3.org/2000/svg">
<rect x="0.5" y="14.5" width="610" height="94" fill="#282C33"/>
<rect x="0.5" y="14.5" width="610" height="94" stroke="#ABB2BF"/>
<path d="M40.556 55.684V70H37.772V55.684H32.804V53.44H45.644L45.356 55.684H40.556ZM51.2146 51.976V58.876C51.7266 58.252 52.3266 57.784 53.0146 57.472C53.7026 57.152 54.4106 56.992 55.1386 56.992C56.3306 56.992 57.2186 57.324 57.8026 57.988C58.3866 58.644 58.6786 59.568 58.6786 60.76V70H55.9906V61.18C55.9906 60.42 55.8466 59.876 55.5586 59.548C55.2706 59.212 54.8066 59.044 54.1666 59.044C53.7666 59.044 53.3826 59.136 53.0146 59.32C52.6546 59.496 52.3186 59.728 52.0066 60.016C51.7026 60.304 51.4386 60.612 51.2146 60.94V70H48.5266V52.264L51.2146 51.976ZM65.1493 64.528C65.2053 65.392 65.3893 66.1 65.7013 66.652C66.0133 67.196 66.4213 67.596 66.9253 67.852C67.4373 68.108 67.9973 68.236 68.6053 68.236C69.2293 68.236 69.8053 68.14 70.3333 67.948C70.8613 67.756 71.3933 67.484 71.9293 67.132L73.0933 68.74C72.5013 69.22 71.8093 69.604 71.0173 69.892C70.2253 70.18 69.3773 70.324 68.4733 70.324C67.1613 70.324 66.0493 70.044 65.1373 69.484C64.2333 68.924 63.5453 68.144 63.0733 67.144C62.6013 66.144 62.3652 64.988 62.3652 63.676C62.3652 62.404 62.5973 61.268 63.0613 60.268C63.5253 59.26 64.1893 58.464 65.0533 57.88C65.9173 57.288 66.9493 56.992 68.1493 56.992C69.2773 56.992 70.2453 57.248 71.0533 57.76C71.8693 58.272 72.4973 59 72.9373 59.944C73.3853 60.88 73.6093 62.008 73.6093 63.328C73.6093 63.544 73.6013 63.76 73.5853 63.976C73.5773 64.184 73.5653 64.368 73.5493 64.528H65.1493ZM68.1733 58.984C67.3333 58.984 66.6373 59.284 66.0853 59.884C65.5413 60.484 65.2253 61.42 65.1373 62.692H71.0053C70.9813 61.5 70.7253 60.584 70.2373 59.944C69.7573 59.304 69.0693 58.984 68.1733 58.984ZM101.611 70H98.2505L96.8225 61L95.2865 70H91.9985L89.8505 57.328H92.4425L93.7625 68.332L95.5265 58.936H98.2145L99.8585 68.332L101.179 57.328H103.674L101.611 70ZM111.165 56.992C112.405 56.992 113.449 57.268 114.297 57.82C115.145 58.372 115.785 59.144 116.217 60.136C116.657 61.128 116.877 62.296 116.877 63.64C116.877 64.976 116.653 66.148 116.205 67.156C115.765 68.156 115.117 68.936 114.261 69.496C113.413 70.048 112.377 70.324 111.153 70.324C109.929 70.324 108.889 70.056 108.033 69.52C107.185 68.976 106.537 68.204 106.089 67.204C105.649 66.204 105.429 65.024 105.429 63.664C105.429 62.344 105.649 61.184 106.089 60.184C106.537 59.184 107.189 58.404 108.045 57.844C108.901 57.276 109.941 56.992 111.165 56.992ZM111.165 59.08C110.197 59.08 109.469 59.452 108.981 60.196C108.493 60.932 108.249 62.088 108.249 63.664C108.249 65.232 108.489 66.388 108.969 67.132C109.457 67.876 110.185 68.248 111.153 68.248C112.121 68.248 112.845 67.876 113.325 67.132C113.813 66.388 114.057 65.224 114.057 63.64C114.057 62.08 113.817 60.932 113.337 60.196C112.857 59.452 112.133 59.08 111.165 59.08ZM120.6 70V68.08H122.46V59.236H120.6V57.328H124.512L125.004 60.268C125.476 59.204 126.06 58.396 126.756 57.844C127.46 57.284 128.364 57.004 129.468 57.004C129.844 57.004 130.18 57.036 130.476 57.1C130.78 57.156 131.08 57.232 131.376 57.328L130.572 59.632C130.316 59.56 130.076 59.508 129.852 59.476C129.628 59.436 129.38 59.416 129.108 59.416C128.188 59.416 127.392 59.76 126.72 60.448C126.056 61.136 125.532 62.112 125.148 63.376V68.08H127.704V70H120.6ZM129 61.996V58.876L129.336 57.328H131.376L130.92 61.996H129ZM140.438 52.24V66.544C140.438 67.128 140.614 67.544 140.966 67.792C141.326 68.032 141.79 68.152 142.358 68.152C142.726 68.152 143.074 68.112 143.402 68.032C143.73 67.952 144.05 67.852 144.362 67.732L145.046 69.604C144.67 69.796 144.206 69.964 143.654 70.108C143.11 70.252 142.486 70.324 141.782 70.324C140.51 70.324 139.518 69.968 138.806 69.256C138.102 68.536 137.75 67.552 137.75 66.304V54.22H133.922V52.24H140.438ZM156.701 51.94L159.389 52.24V70H157.025L156.833 68.44C156.401 69.04 155.885 69.504 155.285 69.832C154.685 70.16 154.013 70.324 153.269 70.324C152.181 70.324 151.285 70.048 150.581 69.496C149.877 68.936 149.353 68.156 149.009 67.156C148.673 66.148 148.505 64.984 148.505 63.664C148.505 62.376 148.705 61.232 149.105 60.232C149.505 59.224 150.077 58.432 150.821 57.856C151.565 57.28 152.461 56.992 153.509 56.992C154.173 56.992 154.769 57.112 155.297 57.352C155.825 57.584 156.293 57.924 156.701 58.372V51.94ZM154.217 59.056C153.313 59.056 152.609 59.432 152.105 60.184C151.601 60.928 151.349 62.088 151.349 63.664C151.349 64.744 151.453 65.624 151.661 66.304C151.869 66.976 152.169 67.472 152.561 67.792C152.953 68.104 153.425 68.26 153.977 68.26C154.585 68.26 155.113 68.084 155.561 67.732C156.009 67.38 156.389 66.956 156.701 66.46V60.46C156.389 60.012 156.025 59.668 155.609 59.428C155.193 59.18 154.729 59.056 154.217 59.056ZM184.966 57.328V68.032H188.41V70H178.486V68.032H182.278V59.296H178.606V57.328H184.966ZM183.094 51.124C183.622 51.124 184.046 51.284 184.366 51.604C184.694 51.924 184.858 52.324 184.858 52.804C184.858 53.284 184.694 53.688 184.366 54.016C184.046 54.344 183.622 54.508 183.094 54.508C182.582 54.508 182.162 54.344 181.834 54.016C181.506 53.688 181.342 53.284 181.342 52.804C181.342 52.324 181.506 51.924 181.834 51.604C182.162 51.284 182.582 51.124 183.094 51.124ZM197.041 68.26C197.881 68.26 198.549 68.112 199.045 67.816C199.541 67.512 199.789 67.096 199.789 66.568C199.789 66.224 199.717 65.932 199.573 65.692C199.429 65.444 199.141 65.22 198.709 65.02C198.277 64.812 197.621 64.596 196.741 64.372C195.909 64.156 195.177 63.9 194.545 63.604C193.921 63.308 193.437 62.924 193.093 62.452C192.749 61.98 192.577 61.372 192.577 60.628C192.577 59.9 192.781 59.264 193.189 58.72C193.597 58.176 194.181 57.752 194.941 57.448C195.709 57.144 196.609 56.992 197.641 56.992C198.705 56.992 199.633 57.132 200.425 57.412C201.217 57.692 201.893 58.04 202.453 58.456L201.325 60.148C200.829 59.82 200.285 59.552 199.693 59.344C199.109 59.136 198.449 59.032 197.713 59.032C196.857 59.032 196.241 59.16 195.865 59.416C195.497 59.672 195.313 60.012 195.313 60.436C195.313 60.748 195.405 61.012 195.589 61.228C195.781 61.436 196.109 61.632 196.573 61.816C197.037 61.992 197.693 62.2 198.541 62.44C199.365 62.664 200.081 62.928 200.689 63.232C201.305 63.536 201.781 63.94 202.117 64.444C202.461 64.94 202.633 65.588 202.633 66.388C202.633 67.3 202.369 68.048 201.841 68.632C201.321 69.208 200.633 69.636 199.777 69.916C198.929 70.188 198.017 70.324 197.041 70.324C195.865 70.324 194.849 70.156 193.993 69.82C193.137 69.476 192.417 69.048 191.833 68.536L193.261 66.904C193.757 67.304 194.325 67.632 194.965 67.888C195.605 68.136 196.297 68.26 197.041 68.26ZM227.322 68.116C227.914 68.116 228.466 68.016 228.978 67.816C229.49 67.608 229.978 67.34 230.442 67.012L231.69 68.74C231.138 69.212 230.466 69.596 229.674 69.892C228.89 70.18 228.078 70.324 227.238 70.324C225.942 70.324 224.834 70.052 223.914 69.508C222.994 68.956 222.29 68.184 221.802 67.192C221.314 66.2 221.07 65.044 221.07 63.724C221.07 62.436 221.314 61.288 221.802 60.28C222.298 59.264 223.01 58.464 223.938 57.88C224.866 57.288 225.982 56.992 227.286 56.992C228.15 56.992 228.946 57.12 229.674 57.376C230.402 57.632 231.07 58.012 231.678 58.516L230.442 60.208C229.946 59.864 229.438 59.604 228.918 59.428C228.406 59.244 227.878 59.152 227.334 59.152C226.334 59.152 225.514 59.52 224.874 60.256C224.242 60.992 223.926 62.148 223.926 63.724C223.926 64.78 224.07 65.632 224.358 66.28C224.654 66.92 225.058 67.388 225.57 67.684C226.082 67.972 226.666 68.116 227.322 68.116ZM235.725 70V68.08H237.585V59.236H235.725V57.328H239.637L240.129 60.268C240.601 59.204 241.185 58.396 241.881 57.844C242.585 57.284 243.489 57.004 244.593 57.004C244.969 57.004 245.305 57.036 245.601 57.1C245.905 57.156 246.205 57.232 246.501 57.328L245.697 59.632C245.441 59.56 245.201 59.508 244.977 59.476C244.753 59.436 244.505 59.416 244.233 59.416C243.313 59.416 242.517 59.76 241.845 60.448C241.181 61.136 240.657 62.112 240.273 63.376V68.08H242.829V70H235.725ZM244.125 61.996V58.876L244.461 57.328H246.501L246.045 61.996H244.125ZM252.683 57.328V66.184C252.683 66.936 252.831 67.472 253.127 67.792C253.431 68.112 253.887 68.272 254.495 68.272C255.071 68.272 255.627 68.1 256.163 67.756C256.699 67.412 257.123 66.992 257.435 66.496V57.328H260.123V70H257.807L257.639 68.38C257.167 69.012 256.571 69.496 255.851 69.832C255.131 70.16 254.395 70.324 253.643 70.324C252.419 70.324 251.503 69.988 250.895 69.316C250.295 68.636 249.995 67.704 249.995 66.52V57.328H252.683ZM266.618 64.528C266.674 65.392 266.858 66.1 267.17 66.652C267.482 67.196 267.89 67.596 268.394 67.852C268.906 68.108 269.466 68.236 270.074 68.236C270.698 68.236 271.274 68.14 271.802 67.948C272.33 67.756 272.862 67.484 273.398 67.132L274.562 68.74C273.97 69.22 273.278 69.604 272.486 69.892C271.694 70.18 270.846 70.324 269.942 70.324C268.63 70.324 267.518 70.044 266.606 69.484C265.702 68.924 265.014 68.144 264.542 67.144C264.07 66.144 263.834 64.988 263.834 63.676C263.834 62.404 264.066 61.268 264.53 60.268C264.994 59.26 265.658 58.464 266.522 57.88C267.386 57.288 268.418 56.992 269.618 56.992C270.746 56.992 271.714 57.248 272.522 57.76C273.338 58.272 273.966 59 274.406 59.944C274.854 60.88 275.078 62.008 275.078 63.328C275.078 63.544 275.07 63.76 275.054 63.976C275.046 64.184 275.034 64.368 275.018 64.528H266.618ZM269.642 58.984C268.802 58.984 268.106 59.284 267.554 59.884C267.01 60.484 266.694 61.42 266.606 62.692H272.474C272.45 61.5 272.194 60.584 271.706 59.944C271.226 59.304 270.538 58.984 269.642 58.984ZM284.345 52.24V66.544C284.345 67.128 284.521 67.544 284.873 67.792C285.233 68.032 285.697 68.152 286.265 68.152C286.633 68.152 286.981 68.112 287.309 68.032C287.637 67.952 287.957 67.852 288.269 67.732L288.953 69.604C288.577 69.796 288.113 69.964 287.561 70.108C287.017 70.252 286.393 70.324 285.689 70.324C284.417 70.324 283.425 69.968 282.713 69.256C282.009 68.536 281.657 67.552 281.657 66.304V54.22H277.829V52.24H284.345ZM298.231 65.68C298.863 65.68 299.387 65.892 299.803 66.316C300.219 66.732 300.427 67.244 300.427 67.852C300.427 68.212 300.371 68.576 300.259 68.944C300.155 69.304 299.983 69.748 299.743 70.276L297.883 74.524H295.795L296.971 69.652C296.683 69.452 296.459 69.196 296.299 68.884C296.139 68.564 296.059 68.216 296.059 67.84C296.059 67.24 296.267 66.732 296.683 66.316C297.099 65.892 297.615 65.68 298.231 65.68ZM324.637 58.84C325.077 58.264 325.589 57.812 326.173 57.484C326.765 57.156 327.413 56.992 328.117 56.992C329.229 56.992 330.129 57.268 330.817 57.82C331.513 58.364 332.021 59.136 332.341 60.136C332.669 61.128 332.833 62.296 332.833 63.64C332.833 64.928 332.641 66.076 332.257 67.084C331.873 68.092 331.305 68.884 330.553 69.46C329.809 70.036 328.889 70.324 327.793 70.324C326.377 70.324 325.265 69.8 324.457 68.752L324.313 70H321.949V52.24L324.637 51.94V58.84ZM327.121 68.272C328.033 68.272 328.737 67.9 329.233 67.156C329.737 66.412 329.989 65.244 329.989 63.652C329.989 62.572 329.889 61.696 329.689 61.024C329.489 60.344 329.193 59.848 328.801 59.536C328.417 59.224 327.945 59.068 327.385 59.068C326.785 59.068 326.257 59.248 325.801 59.608C325.345 59.968 324.957 60.392 324.637 60.88V66.808C324.933 67.264 325.289 67.624 325.705 67.888C326.129 68.144 326.601 68.272 327.121 68.272ZM339.027 57.328V66.184C339.027 66.936 339.175 67.472 339.471 67.792C339.775 68.112 340.231 68.272 340.839 68.272C341.415 68.272 341.971 68.1 342.507 67.756C343.043 67.412 343.467 66.992 343.779 66.496V57.328H346.467V70H344.151L343.983 68.38C343.511 69.012 342.915 69.496 342.195 69.832C341.475 70.16 340.739 70.324 339.987 70.324C338.763 70.324 337.847 69.988 337.239 69.316C336.639 68.636 336.339 67.704 336.339 66.52V57.328H339.027ZM361.314 69.328C360.85 69.624 360.294 69.864 359.646 70.048C358.998 70.232 358.322 70.324 357.618 70.324C356.146 70.324 355.026 69.944 354.258 69.184C353.498 68.416 353.118 67.408 353.118 66.16V59.284H350.298V57.328H353.118V54.496L355.806 54.172V57.328H360.078L359.778 59.284H355.806V66.136C355.806 66.816 355.974 67.324 356.31 67.66C356.654 67.988 357.214 68.152 357.99 68.152C358.454 68.152 358.882 68.096 359.274 67.984C359.666 67.872 360.022 67.728 360.342 67.552L361.314 69.328ZM389.195 66.892C389.195 67.388 389.271 67.752 389.423 67.984C389.575 68.208 389.819 68.376 390.155 68.488L389.555 70.312C388.931 70.24 388.395 70.068 387.947 69.796C387.499 69.524 387.159 69.112 386.927 68.56C386.463 69.144 385.875 69.584 385.163 69.88C384.451 70.176 383.691 70.324 382.883 70.324C381.603 70.324 380.587 69.964 379.835 69.244C379.091 68.516 378.719 67.564 378.719 66.388C378.719 65.052 379.239 64.024 380.279 63.304C381.319 62.584 382.807 62.224 384.743 62.224H386.555V61.396C386.555 60.58 386.307 59.992 385.811 59.632C385.323 59.272 384.631 59.092 383.735 59.092C383.319 59.092 382.815 59.148 382.223 59.26C381.631 59.364 381.011 59.528 380.363 59.752L379.703 57.856C380.495 57.56 381.271 57.344 382.031 57.208C382.791 57.064 383.495 56.992 384.143 56.992C385.839 56.992 387.103 57.368 387.935 58.12C388.775 58.872 389.195 59.912 389.195 61.24V66.892ZM383.699 68.344C384.243 68.344 384.775 68.2 385.295 67.912C385.815 67.624 386.235 67.22 386.555 66.7V63.904H385.067C383.803 63.904 382.899 64.116 382.355 64.54C381.811 64.956 381.539 65.532 381.539 66.268C381.539 66.94 381.719 67.456 382.079 67.816C382.447 68.168 382.987 68.344 383.699 68.344ZM399.47 52.24V66.544C399.47 67.128 399.646 67.544 399.998 67.792C400.358 68.032 400.822 68.152 401.39 68.152C401.758 68.152 402.106 68.112 402.434 68.032C402.762 67.952 403.082 67.852 403.394 67.732L404.078 69.604C403.702 69.796 403.238 69.964 402.686 70.108C402.142 70.252 401.518 70.324 400.814 70.324C399.542 70.324 398.55 69.968 397.838 69.256C397.134 68.536 396.782 67.552 396.782 66.304V54.22H392.954V52.24H399.47ZM412.9 68.26C413.74 68.26 414.408 68.112 414.904 67.816C415.4 67.512 415.648 67.096 415.648 66.568C415.648 66.224 415.576 65.932 415.432 65.692C415.288 65.444 415 65.22 414.568 65.02C414.136 64.812 413.48 64.596 412.6 64.372C411.768 64.156 411.036 63.9 410.404 63.604C409.78 63.308 409.296 62.924 408.952 62.452C408.608 61.98 408.436 61.372 408.436 60.628C408.436 59.9 408.64 59.264 409.048 58.72C409.456 58.176 410.04 57.752 410.8 57.448C411.568 57.144 412.468 56.992 413.5 56.992C414.564 56.992 415.492 57.132 416.284 57.412C417.076 57.692 417.752 58.04 418.312 58.456L417.184 60.148C416.688 59.82 416.144 59.552 415.552 59.344C414.968 59.136 414.308 59.032 413.572 59.032C412.716 59.032 412.1 59.16 411.724 59.416C411.356 59.672 411.172 60.012 411.172 60.436C411.172 60.748 411.264 61.012 411.448 61.228C411.64 61.436 411.968 61.632 412.432 61.816C412.896 61.992 413.552 62.2 414.4 62.44C415.224 62.664 415.94 62.928 416.548 63.232C417.164 63.536 417.64 63.94 417.976 64.444C418.32 64.94 418.492 65.588 418.492 66.388C418.492 67.3 418.228 68.048 417.7 68.632C417.18 69.208 416.492 69.636 415.636 69.916C414.788 70.188 413.876 70.324 412.9 70.324C411.724 70.324 410.708 70.156 409.852 69.82C408.996 69.476 408.276 69.048 407.692 68.536L409.12 66.904C409.616 67.304 410.184 67.632 410.824 67.888C411.464 68.136 412.156 68.26 412.9 68.26ZM427.759 56.992C428.999 56.992 430.043 57.268 430.891 57.82C431.739 58.372 432.379 59.144 432.811 60.136C433.251 61.128 433.471 62.296 433.471 63.64C433.471 64.976 433.247 66.148 432.799 67.156C432.359 68.156 431.711 68.936 430.855 69.496C430.007 70.048 428.971 70.324 427.747 70.324C426.523 70.324 425.483 70.056 424.627 69.52C423.779 68.976 423.131 68.204 422.683 67.204C422.243 66.204 422.023 65.024 422.023 63.664C422.023 62.344 422.243 61.184 422.683 60.184C423.131 59.184 423.783 58.404 424.639 57.844C425.495 57.276 426.535 56.992 427.759 56.992ZM427.759 59.08C426.791 59.08 426.063 59.452 425.575 60.196C425.087 60.932 424.843 62.088 424.843 63.664C424.843 65.232 425.083 66.388 425.563 67.132C426.051 67.876 426.779 68.248 427.747 68.248C428.715 68.248 429.439 67.876 429.919 67.132C430.407 66.388 430.651 65.224 430.651 63.64C430.651 62.08 430.411 60.932 429.931 60.196C429.451 59.452 428.727 59.08 427.759 59.08ZM454.152 58.84C454.592 58.264 455.104 57.812 455.688 57.484C456.28 57.156 456.928 56.992 457.632 56.992C458.744 56.992 459.644 57.268 460.332 57.82C461.028 58.364 461.536 59.136 461.856 60.136C462.184 61.128 462.348 62.296 462.348 63.64C462.348 64.928 462.156 66.076 461.772 67.084C461.388 68.092 460.82 68.884 460.068 69.46C459.324 70.036 458.404 70.324 457.308 70.324C455.892 70.324 454.78 69.8 453.972 68.752L453.828 70H451.464V52.24L454.152 51.94V58.84ZM456.636 68.272C457.548 68.272 458.252 67.9 458.748 67.156C459.252 66.412 459.504 65.244 459.504 63.652C459.504 62.572 459.404 61.696 459.204 61.024C459.004 60.344 458.708 59.848 458.316 59.536C457.932 59.224 457.46 59.068 456.9 59.068C456.3 59.068 455.772 59.248 455.316 59.608C454.86 59.968 454.472 60.392 454.152 60.88V66.808C454.448 67.264 454.804 67.624 455.22 67.888C455.644 68.144 456.116 68.272 456.636 68.272ZM468.087 64.528C468.143 65.392 468.327 66.1 468.639 66.652C468.951 67.196 469.359 67.596 469.863 67.852C470.375 68.108 470.935 68.236 471.543 68.236C472.167 68.236 472.743 68.14 473.271 67.948C473.799 67.756 474.331 67.484 474.867 67.132L476.031 68.74C475.439 69.22 474.747 69.604 473.955 69.892C473.163 70.18 472.315 70.324 471.411 70.324C470.099 70.324 468.987 70.044 468.075 69.484C467.171 68.924 466.483 68.144 466.011 67.144C465.539 66.144 465.303 64.988 465.303 63.676C465.303 62.404 465.535 61.268 465.999 60.268C466.463 59.26 467.127 58.464 467.991 57.88C468.855 57.288 469.887 56.992 471.087 56.992C472.215 56.992 473.183 57.248 473.991 57.76C474.807 58.272 475.435 59 475.875 59.944C476.323 60.88 476.547 62.008 476.547 63.328C476.547 63.544 476.539 63.76 476.523 63.976C476.515 64.184 476.503 64.368 476.487 64.528H468.087ZM471.111 58.984C470.271 58.984 469.575 59.284 469.023 59.884C468.479 60.484 468.163 61.42 468.075 62.692H473.943C473.919 61.5 473.663 60.584 473.175 59.944C472.695 59.304 472.007 58.984 471.111 58.984ZM489.929 66.892C489.929 67.388 490.005 67.752 490.157 67.984C490.309 68.208 490.553 68.376 490.889 68.488L490.289 70.312C489.665 70.24 489.129 70.068 488.681 69.796C488.233 69.524 487.893 69.112 487.661 68.56C487.197 69.144 486.609 69.584 485.897 69.88C485.185 70.176 484.425 70.324 483.617 70.324C482.337 70.324 481.321 69.964 480.569 69.244C479.825 68.516 479.453 67.564 479.453 66.388C479.453 65.052 479.973 64.024 481.013 63.304C482.053 62.584 483.541 62.224 485.477 62.224H487.289V61.396C487.289 60.58 487.041 59.992 486.545 59.632C486.057 59.272 485.365 59.092 484.469 59.092C484.053 59.092 483.549 59.148 482.957 59.26C482.365 59.364 481.745 59.528 481.097 59.752L480.437 57.856C481.229 57.56 482.005 57.344 482.765 57.208C483.525 57.064 484.229 56.992 484.877 56.992C486.573 56.992 487.837 57.368 488.669 58.12C489.509 58.872 489.929 59.912 489.929 61.24V66.892ZM484.433 68.344C484.977 68.344 485.509 68.2 486.029 67.912C486.549 67.624 486.969 67.22 487.289 66.7V63.904H485.801C484.537 63.904 483.633 64.116 483.089 64.54C482.545 64.956 482.273 65.532 482.273 66.268C482.273 66.94 482.453 67.456 482.813 67.816C483.181 68.168 483.721 68.344 484.433 68.344ZM497.324 57.328V66.184C497.324 66.936 497.472 67.472 497.768 67.792C498.072 68.112 498.528 68.272 499.136 68.272C499.712 68.272 500.268 68.1 500.804 67.756C501.34 67.412 501.764 66.992 502.076 66.496V57.328H504.764V70H502.448L502.28 68.38C501.808 69.012 501.212 69.496 500.492 69.832C499.772 70.16 499.036 70.324 498.284 70.324C497.06 70.324 496.144 69.988 495.536 69.316C494.936 68.636 494.636 67.704 494.636 66.52V57.328H497.324ZM519.611 69.328C519.147 69.624 518.591 69.864 517.943 70.048C517.295 70.232 516.619 70.324 515.915 70.324C514.443 70.324 513.323 69.944 512.555 69.184C511.795 68.416 511.415 67.408 511.415 66.16V59.284H508.595V57.328H511.415V54.496L514.103 54.172V57.328H518.375L518.075 59.284H514.103V66.136C514.103 66.816 514.271 67.324 514.607 67.66C514.951 67.988 515.511 68.152 516.287 68.152C516.751 68.152 517.179 68.096 517.571 67.984C517.963 67.872 518.319 67.728 518.639 67.552L519.611 69.328ZM530.341 57.328V68.032H533.785V70H523.861V68.032H527.653V59.296H523.981V57.328H530.341ZM528.469 51.124C528.997 51.124 529.421 51.284 529.741 51.604C530.069 51.924 530.233 52.324 530.233 52.804C530.233 53.284 530.069 53.688 529.741 54.016C529.421 54.344 528.997 54.508 528.469 54.508C527.957 54.508 527.537 54.344 527.209 54.016C526.881 53.688 526.717 53.284 526.717 52.804C526.717 52.324 526.881 51.924 527.209 51.604C527.537 51.284 527.957 51.124 528.469 51.124ZM545.512 51.94C546.288 51.94 546.98 52.008 547.588 52.144C548.204 52.272 548.772 52.448 549.292 52.672L548.5 54.532C548.076 54.356 547.632 54.228 547.168 54.148C546.712 54.068 546.248 54.028 545.776 54.028C544.944 54.028 544.328 54.188 543.928 54.508C543.528 54.82 543.328 55.316 543.328 55.996V58.24H547.564L547.276 60.22H543.328V70H540.652V60.22H537.772V58.24H540.652V55.972C540.652 55.172 540.852 54.472 541.252 53.872C541.66 53.264 542.228 52.792 542.956 52.456C543.684 52.112 544.536 51.94 545.512 51.94ZM554.887 57.328V66.184C554.887 66.936 555.035 67.472 555.331 67.792C555.635 68.112 556.091 68.272 556.699 68.272C557.275 68.272 557.831 68.1 558.367 67.756C558.903 67.412 559.327 66.992 559.639 66.496V57.328H562.327V70H560.011L559.843 68.38C559.371 69.012 558.775 69.496 558.055 69.832C557.335 70.16 556.599 70.324 555.847 70.324C554.623 70.324 553.707 69.988 553.099 69.316C552.499 68.636 552.199 67.704 552.199 66.52V57.328H554.887ZM572.157 52.24V66.544C572.157 67.128 572.333 67.544 572.685 67.792C573.045 68.032 573.509 68.152 574.077 68.152C574.445 68.152 574.793 68.112 575.121 68.032C575.449 67.952 575.769 67.852 576.081 67.732L576.765 69.604C576.389 69.796 575.925 69.964 575.373 70.108C574.829 70.252 574.205 70.324 573.501 70.324C572.229 70.324 571.237 69.968 570.525 69.256C569.821 68.536 569.469 67.552 569.469 66.304V54.22H565.641V52.24H572.157Z" fill="white"/>
<rect width="41.472" height="28.704" transform="translate(11)" fill="#282C33"/>
<path d="M29.56 19.616C29.56 21.0453 29.0373 22.2507 27.992 23.232C26.968 24.2133 25.72 24.704 24.248 24.704C22.7333 24.704 21.4747 24.2133 20.472 23.232C19.4907 22.2507 19 21.0453 19 19.616C19 18.9333 19.096 18.208 19.288 17.44C19.48 16.672 19.864 15.68 20.44 14.464L25.4 4H30.2L27.544 15.584C28.1413 16.0107 28.6213 16.576 28.984 17.28C29.368 17.9627 29.56 18.7413 29.56 19.616ZM43.8 19.616C43.8 21.0453 43.2773 22.2507 42.232 23.232C41.1867 24.2133 39.9387 24.704 38.488 24.704C37.016 24.704 35.768 24.2133 34.744 23.232C33.7413 22.2507 33.24 21.0453 33.24 19.616C33.24 18.9333 33.336 18.208 33.528 17.44C33.72 16.672 34.1147 15.68 34.712 14.464L39.704 4H44.472L41.784 15.584C42.4027 16.0107 42.8933 16.576 43.256 17.28C43.6187 17.9627 43.8 18.7413 43.8 19.616Z" fill="#ABB2BF"/>
<rect x="461.5" y="108.5" width="149" height="64" stroke="#ABB2BF"/>
<path d="M480.388 142.364V140.612H490.012V142.364H480.388ZM519.513 132.476L520.449 149H518.445L517.929 140.372C517.905 139.788 517.881 139.196 517.857 138.596C517.833 137.996 517.817 137.42 517.809 136.868C517.801 136.316 517.797 135.824 517.797 135.392C517.797 134.96 517.797 134.624 517.797 134.384L515.013 146.036H512.925L509.937 134.384C509.945 134.616 509.953 134.96 509.961 135.416C509.969 135.864 509.973 136.372 509.973 136.94C509.981 137.508 509.977 138.092 509.961 138.692C509.953 139.284 509.937 139.836 509.913 140.348L509.469 149H507.513L508.449 132.476H511.353L514.029 143.792L516.585 132.476H519.513ZM529.98 136.364V147.404H533.544V149H524.064V147.404H527.964V137.96H524.184V136.364H529.98ZM528.372 130.448C528.82 130.448 529.176 130.584 529.44 130.856C529.712 131.128 529.848 131.46 529.848 131.852C529.848 132.26 529.712 132.604 529.44 132.884C529.176 133.156 528.82 133.292 528.372 133.292C527.948 133.292 527.6 133.156 527.328 132.884C527.056 132.604 526.92 132.26 526.92 131.852C526.92 131.46 527.056 131.128 527.328 130.856C527.6 130.584 527.948 130.448 528.372 130.448ZM548.559 136.364L542.871 142.052L549.219 149H546.567L540.351 142.1L545.943 136.364H548.559ZM540.123 131.024V149H538.107V131.276L540.123 131.024ZM561.413 146.24C561.413 146.744 561.497 147.112 561.665 147.344C561.833 147.576 562.093 147.748 562.445 147.86L561.953 149.276C561.409 149.204 560.933 149.032 560.525 148.76C560.117 148.48 559.821 148.06 559.637 147.5C559.181 148.084 558.613 148.528 557.933 148.832C557.253 149.128 556.501 149.276 555.677 149.276C554.413 149.276 553.417 148.92 552.689 148.208C551.961 147.496 551.597 146.552 551.597 145.376C551.597 144.072 552.105 143.072 553.121 142.376C554.137 141.68 555.605 141.332 557.525 141.332H559.385V140.276C559.385 139.364 559.117 138.72 558.581 138.344C558.053 137.96 557.317 137.768 556.373 137.768C555.957 137.768 555.469 137.82 554.909 137.924C554.349 138.02 553.741 138.184 553.085 138.416L552.557 136.892C553.333 136.604 554.061 136.4 554.741 136.28C555.421 136.16 556.069 136.1 556.685 136.1C558.261 136.1 559.441 136.468 560.225 137.204C561.017 137.932 561.413 138.924 561.413 140.18V146.24ZM556.193 147.74C556.817 147.74 557.413 147.584 557.981 147.272C558.549 146.952 559.017 146.512 559.385 145.952V142.7H557.561C556.169 142.7 555.185 142.94 554.609 143.42C554.041 143.9 553.757 144.544 553.757 145.352C553.757 146.136 553.957 146.732 554.357 147.14C554.765 147.54 555.377 147.74 556.193 147.74ZM571.052 147.608C572.02 147.608 572.784 147.428 573.344 147.068C573.912 146.7 574.196 146.212 574.196 145.604C574.196 145.22 574.124 144.888 573.98 144.608C573.844 144.328 573.56 144.076 573.128 143.852C572.696 143.628 572.032 143.404 571.136 143.18C570.264 142.964 569.504 142.716 568.856 142.436C568.216 142.148 567.716 141.776 567.356 141.32C567.004 140.864 566.828 140.272 566.828 139.544C566.828 138.832 567.028 138.22 567.428 137.708C567.836 137.188 568.4 136.792 569.12 136.52C569.84 136.24 570.676 136.1 571.628 136.1C572.644 136.1 573.528 136.236 574.28 136.508C575.04 136.772 575.684 137.1 576.212 137.492L575.324 138.86C574.844 138.532 574.316 138.264 573.74 138.056C573.164 137.84 572.468 137.732 571.652 137.732C570.66 137.732 569.956 137.888 569.54 138.2C569.124 138.504 568.916 138.9 568.916 139.388C568.916 139.756 569.016 140.064 569.216 140.312C569.424 140.552 569.772 140.772 570.26 140.972C570.748 141.164 571.42 141.376 572.276 141.608C573.1 141.824 573.816 142.084 574.424 142.388C575.04 142.692 575.52 143.092 575.864 143.588C576.208 144.084 576.38 144.724 576.38 145.508C576.38 146.404 576.124 147.132 575.612 147.692C575.1 148.244 574.436 148.648 573.62 148.904C572.812 149.152 571.956 149.276 571.052 149.276C569.908 149.276 568.932 149.112 568.124 148.784C567.324 148.448 566.652 148.044 566.108 147.572L567.26 146.24C567.756 146.648 568.324 146.98 568.964 147.236C569.612 147.484 570.308 147.608 571.052 147.608ZM590.194 146.24C590.194 146.744 590.278 147.112 590.446 147.344C590.614 147.576 590.874 147.748 591.226 147.86L590.734 149.276C590.19 149.204 589.714 149.032 589.306 148.76C588.898 148.48 588.602 148.06 588.418 147.5C587.962 148.084 587.394 148.528 586.714 148.832C586.034 149.128 585.282 149.276 584.458 149.276C583.194 149.276 582.198 148.92 581.47 148.208C580.742 147.496 580.378 146.552 580.378 145.376C580.378 144.072 580.886 143.072 581.902 142.376C582.918 141.68 584.386 141.332 586.306 141.332H588.166V140.276C588.166 139.364 587.898 138.72 587.362 138.344C586.834 137.96 586.098 137.768 585.154 137.768C584.738 137.768 584.25 137.82 583.69 137.924C583.13 138.02 582.522 138.184 581.866 138.416L581.338 136.892C582.114 136.604 582.842 136.4 583.522 136.28C584.202 136.16 584.85 136.1 585.466 136.1C587.042 136.1 588.222 136.468 589.006 137.204C589.798 137.932 590.194 138.924 590.194 140.18V146.24ZM584.974 147.74C585.598 147.74 586.194 147.584 586.762 147.272C587.33 146.952 587.798 146.512 588.166 145.952V142.7H586.342C584.95 142.7 583.966 142.94 583.39 143.42C582.822 143.9 582.538 144.544 582.538 145.352C582.538 146.136 582.738 146.732 583.138 147.14C583.546 147.54 584.158 147.74 584.974 147.74Z" fill="white"/>
<rect width="41.472" height="28.704" transform="translate(553 94)" fill="#282C33"/>
<path d="M571.56 113.616C571.56 115.045 571.037 116.251 569.992 117.232C568.968 118.213 567.72 118.704 566.248 118.704C564.733 118.704 563.475 118.213 562.472 117.232C561.491 116.251 561 115.045 561 113.616C561 112.933 561.096 112.208 561.288 111.44C561.48 110.672 561.864 109.68 562.44 108.464L567.4 98H572.2L569.544 109.584C570.141 110.011 570.621 110.576 570.984 111.28C571.368 111.963 571.56 112.741 571.56 113.616ZM585.8 113.616C585.8 115.045 585.277 116.251 584.232 117.232C583.187 118.213 581.939 118.704 580.488 118.704C579.016 118.704 577.768 118.213 576.744 117.232C575.741 116.251 575.24 115.045 575.24 113.616C575.24 112.933 575.336 112.208 575.528 111.44C575.72 110.672 576.115 109.68 576.712 108.464L581.704 98H586.472L583.784 109.584C584.403 110.011 584.893 110.576 585.256 111.28C585.619 111.963 585.8 112.741 585.8 113.616Z" fill="#ABB2BF"/>
</svg>
